#N canvas 600 109 928 756 10;
#X obj 24 61 bng 15 250 50 0 /i:/ empty /i:/ 17 7 1 15 -262144 -1 -1
;
#X obj 64 61 bng 15 250 50 0 /ɑ/ empty /ɑ/ 17 7 1 15 -262144 -1 -1
;
#X obj 105 61 bng 15 250 50 0 /æ/ empty /æ/ 17 7 1 15 -262144 -1
-1;
#X obj 151 61 bng 15 250 50 0 /ɛ/ empty /ɛ/ 17 7 1 15 -262144 -1
-1;
#X obj 24 83 bng 15 250 50 0 /u/ empty /u/ 17 7 1 15 -262144 -1 -1
;
#X obj 20 385 tgl 15 0 \$0-whisper empty whisper 17 7 1 15 -262144
-1 -1 0 1;
#X obj 29 515 select 0;
#X msg 74 534 \; voice_gain 0 \; voice_noise 0.02;
#X msg 29 579 \; voice_gain 1 \; voice_noise 0.02;
#X obj 24 200 bng 15 250 50 0 /s/ empty /s/ 17 7 1 15 -262144 -1 -1
;
#X obj 11 27 cnv 15 198 23 empty empty Monophthong vowels 12 12 1
16 -228856 -1 0;
#X obj 11 167 cnv 15 198 23 empty empty Consonants 12 12 1 16 -228856
-1 0;
#X obj 65 200 bng 15 250 50 0 /p/ empty /p/ 17 7 1 15 -262144 -1 -1
;
#X obj 11 227 cnv 15 198 23 empty empty Words 12 12 1 16 -228856 -1
0;
#X obj 24 281 bng 15 250 50 0 /baʊt/ empty /baʊt/ (bout) 17 7 1
15 -262144 -1 -1;
#X obj 29 496 r \$0-whisper;
#X obj 64 83 bng 15 250 50 0 /I/ empty /I/ 17 7 2 15 -262144 -1 -1
;
#X obj 11 107 cnv 15 198 23 empty empty Dipthongs 12 12 1 16 -228856
-1 0;
#X obj 24 140 bng 15 250 50 0 /aʊ/ empty /aʊ/ 17 7 1 15 -262144 -1
-1;
#X obj 106 200 bng 15 250 50 0 /t/ empty /t/ 17 7 1 15 -262144 -1 -1
;
#X obj 24 303 bng 15 250 50 0 /sip/ empty /sip/ (sip) 17 7 1 15 -262144
-1 -1;
#X obj 288 621 rqlist /baʊt/ qlists/bout.txt;
#X obj 785 10 rdefault /u/ 1000;
#X obj 215 133 rdefault /I/ 1000;
#X obj 215 10 rdefault /i:/ 1000;
#X obj 420 10 rdefault /ɑ/ 1000;
#X obj 544 10 rdefault /æ/ 1000;
#X obj 664 10 rdefault /ɛ/ 1000;
#X obj 673 118 rdefault /p/ 240;
#X obj 577 324 rdefault /t/ 60 200;
#X obj 324 297 rdefault /aʊ/ 30 193;
#X obj 72 140 bng 15 250 50 0 /ɔɪ/ empty /ɔɪ/ 17 7 1 15 -262144
-1 -1;
#X obj 24 259 bng 15 250 50 0 /nɔɪz/ empty /nɔɪz/ (noise) 17 7
1 15 -262144 -1 -1;
#X obj 288 642 rqlist /nɔɪz/ qlists/noise.txt;
#X msg 324 319 \; source.asp 0.05 1000 0 \; source.voiced.epsilon 4.2
0 \; source.voiced.timing 0.44 0.38 \; source.voiced.alpha 0.2 \$1
\; source.voiced 137 20 \$1 \; f1 1.3 811 180 \$1 \; f2 1.3 1652 180
\$1 \; f3 1.3 2467 180 \$1 \; f4 1 3571 600 \$1 \; f5 0.1 3781 600
\$1 \; wait \$1 source.voiced 127 0 \$2 \; wait \$1 source.voiced.alpha
25 \$2 \; wait \$1 f1 0 464 180 \$2 \; wait \$1 f2 0.6 1022 180 \$2
\; wait \$1 f3 0.1 2336 180 \$2 \; wait \$1 f4 0.3 3466 680 \$2 \;
wait \$1 f5 0.02 4210 600 \$2 \;;
#X obj 17 705 r #;
#X text 47 705 use to discard 'comments' in qlists/msgs;
#X text 99 682 create a message delay receiver caled 'wait';
#X msg 577 345 \; source.voiced.timing 1 0.49 \; source.asp 0.1 2000
\$1 \; source.voiced.alpha 0 \$1 \; source.voiced 8 0.01 \$1 \; source.fric
0.6 1000 12000 0 \; f1 0.05 1719 300 0 \; f2 0.1 2082 300 0 \; f3 0.2
2779 200 0 \; f4 0.8 3755 300 0 \; f5 1 4703 500 0 \; wait 1 source.fric
0.5 1000 12000 0 \; wait 1 f1 0.4 1471 300 \$1 \; wait 1 f2 0.15 2082
300 \$1 \; wait 1 f3 0.05 2779 200 \$1 \; wait 1 f4 0.85 3755 300 0
\; wait 1 f5 0.15 4703 500 \$1 \; wait 2 source.fric 0.4 1000 4000
\$1 \; wait \$1 source.fric 0.08 1000 4000 10 \; wait \$1 source.voiced
60 0 \$2 \; wait \$1 source.voiced.alpha 0.8 \$2 \; wait \$1 wait 10
source.fric 0 100 200 \$1 \;;
#X msg 429 124 \; source.fric 0 3000 7000 0 \; f1 0.1 551 40 0 \; f2
0.1 1812 40 0 \; f3 0.1 2662 40 0 \; f4 0.2 4209 40 0 \; f5 0.4 5440
40 0 \; wait 1 source.fric 5 3000 16000 \$1 \; wait \$1 source.fric
0 3000 20000 20 \;;
#X msg 672 138 \; source.voiced 17 4 0 0 \; wait 1 source.voiced 160
0 0 200 \; source.fric.gain 0.2 1 \; wait 1 source.fric 0 1 4000 \$1
\; f0 160 50 1 \; f1 0.2 809 50 1 \; f2 0.1 1548 50 1 \; f3 0.02 2744
50 1 \; f4 0.1 4034 50 1 \; f5 0.004 5094 70 1 \;;
#X obj 16 683 msgpipe wait;
#X obj 429 103 rdefault /s/ 259;
#X obj 288 601 rqlist /sip/ qlists/sip.txt;
#X msg 215 29 \; source.voiced 156 1 200 \; f1 1 494 50 100 \; f2 1
2000 50 100 \; f3 1 2800 50 100;
#X msg 420 29 \; source.voiced 160 1 200 \; f1 1 758 50 100 \; f2 1
1265 50 100 \; f3 1 2714 50 100;
#X msg 544 29 \; source.voiced 161 1 200 \; f1 1 809 50 100 \; f2 1
1533 50 100 \; f3 1 2627 50 100;
#X msg 664 29 \; source.voiced 164 1 200 \; f1 1 775 50 100 \; f2 1
1896 50 100 \; f3 1 2871 50 100;
#X msg 785 29 \; source.voiced 145 1 200 \; f1 1 336 50 100 \; f2 1
1639 50 100 \; f3 1 2502 50 100;
#X msg 215 152 \; source.voiced 160 1 50 \; f0 128 200 \; f1 1 551
50 100 \; f2 1 1812 50 100 \; f3 1 2662 50 100 \; f4 1 3951 50 100
\; f5 0.1 5651 50 100 \;;
#X connect 6 0 8 0;
#X connect 6 1 7 0;
#X connect 15 0 6 0;
#X connect 22 0 48 0;
#X connect 23 0 49 0;
#X connect 24 0 44 0;
#X connect 25 0 45 0;
#X connect 26 0 46 0;
#X connect 27 0 47 0;
#X connect 28 0 40 0;
#X connect 29 0 38 0;
#X connect 30 0 34 0;
#X connect 42 0 39 0;
#X coords 0 -1 1 1 200 400 1 10 10;
