#N canvas 608 127 705 681 10;
#X obj 106 186 inlet~;
#X obj 27 484 dac~;
#N canvas 750 335 482 356 dsp 0;
#X obj 11 7 inlet;
#X obj 92 226 select 0 1;
#X msg 125 248 6;
#X obj 92 57 route dsp;
#X obj 92 36 receive pd;
#X obj 206 138 loadbang;
#X msg 11 220 dsp \$1;
#X obj 11 245 send pd;
#X msg 206 278 set \$1;
#X obj 206 174 value GLOBAL_PDDP_DSP;
#X msg 109 278 color \$1 20 12;
#X obj 180 309 send \$0-dsp-toggle;
#X obj 92 115 change;
#X msg 92 247 0;
#X connect 0 0 6 0;
#X connect 0 0 12 0;
#X connect 1 0 13 0;
#X connect 1 1 2 0;
#X connect 2 0 10 0;
#X connect 3 0 12 0;
#X connect 4 0 3 0;
#X connect 5 0 9 0;
#X connect 6 0 7 0;
#X connect 8 0 11 0;
#X connect 9 0 8 0;
#X connect 9 0 1 0;
#X connect 10 0 11 0;
#X connect 12 0 8 0;
#X connect 12 0 1 0;
#X connect 12 0 9 0;
#X connect 13 0 10 0;
#X restore 377 154 pd dsp logic;
#X obj 182 245 line~;
#X obj 330 175 send pd;
#X msg 330 154 dsp 1;
#X obj 182 224 pack 0 50;
#X msg 182 189 0;
#X obj 182 166 moses 0.011;
#X obj 106 303 *~;
#X obj 106 390 hip~ 3;
#X text 116 368 dc filter;
#X obj 106 335 freeverb~;
#X obj 484 269 moses 1;
#X msg 484 289 wet 0;
#X msg 523 289 wet 0.1;
#X obj 220 352 tgl 15 0 empty empty recording 20 8 1 14 -262144 -1
-1 0 1;
#X obj 106 643 writesf~ 1;
#X obj 220 375 moses 1;
#X obj 447 392 savepanel;
#X obj 447 368 bng 15 250 50 0 empty \$0-save.location empty 17 7 0
10 -262144 -1 -1;
#X obj 447 432 s \$0-filename;
#X obj 51 70 cnv 15 348 45 empty \$0-recording.bg RECORDING 6 12 0
14 -262144 -262144 0;
#X obj 333 75 hsl 42 18 0.01 1 1 0 \$0-v \$0-v.label volume 7 9 1 9
-260097 -13381 -1 4100 0;
#X obj 377 75 tgl 18 0 THIS_IS_HERE_TO_GET_RID_OF_THE_OUTLET \$0-dsp-toggle
dsp 2 9 1 9 -225271 -195568 -33289 1 1;
#X obj 270 76 tgl 15 0 \$0-reverb \$0-reverb.label Reverb 20 7 1 10
-262144 -1 -1 0 1;
#X obj 58 93 bng 20 250 50 0 \$0-record.toggle \$0-record.button ●
2 7 0 30 -262144 -262144 -258699;
#X obj 345 560 any;
#X msg 345 583 open \$1 \, start;
#X obj 483 84 loadbang;
#X obj 86 95 bng 15 250 50 0 \$0-save.location \$0-filename ⏏️   //may-8-1633-bout.wav
4 7 1 9 -262144 -1 -1;
#X msg 447 412 label ⏏️   \$1;
#X obj 345 538 bng 15 250 50 0 empty empty empty 17 7 0 10 -262144
-1 -1;
#X obj 484 249 r \$0-reverb;
#X obj -25 2 cnv 15 700 40 empty \$0-pddp.cnv.header desk~ 3 12 0 18
-232576 -1 0;
#X text -12 25 manage DSP/levels/recording/effects for the master audio
;
#X text 483 66 configure initial state;
#X text 249 223 ramp to avoid clicks;
#X text 485 231 enable/disable reverb;
#X obj 12 267 r \$0-freeverb;
#X obj 484 317 s \$0-freeverb;
#X text 17 244 ctrl signals;
#X text 378 561 buffer filename;
#X text 220 307 when record button is clicked;
#X text 290 375 turn on or off;
#X obj 483 105 i \$0;
#X msg 483 128 \; \$1-v.label 1 \; \$1-reverb.label 0 \; \$1-freeverb
dry 1 \; \$1-freeverb roomsize 0.1 \; \$1-freeverb damping 2 \;;
#X obj 220 327 receive \$0-record.toggle;
#X text 468 366 linked to eject button;
#X text 534 390 get new filename;
#X text 550 410 update label;
#X msg 123 470 stop \; \$1-recording.bg color 30 0 \; \$1-record.button
color 0 0 13 \; \$1-record.button label ● \;;
#X msg 345 473 bang \; \$1-recording.bg color 43 0 \; \$1-record.button
color 0 0 12 \; \$1-record.button label ■ \;;
#X obj 123 447 recall \$0;
#X obj 345 450 recall \$0;
#X connect 0 0 9 0;
#X connect 3 0 9 1;
#X connect 5 0 4 0;
#X connect 6 0 3 0;
#X connect 7 0 6 0;
#X connect 8 0 7 0;
#X connect 8 1 6 0;
#X connect 9 0 12 0;
#X connect 10 0 1 0;
#X connect 10 0 1 1;
#X connect 10 0 17 0;
#X connect 12 0 10 0;
#X connect 13 0 14 0;
#X connect 13 1 15 0;
#X connect 14 0 40 0;
#X connect 15 0 40 0;
#X connect 16 0 18 0;
#X connect 18 0 53 0;
#X connect 18 1 54 0;
#X connect 19 0 31 0;
#X connect 19 0 27 1;
#X connect 20 0 19 0;
#X connect 23 0 8 0;
#X connect 23 0 5 0;
#X connect 24 0 2 0;
#X connect 27 0 28 0;
#X connect 28 0 17 0;
#X connect 29 0 45 0;
#X connect 31 0 21 0;
#X connect 32 0 27 0;
#X connect 33 0 13 0;
#X connect 39 0 12 0;
#X connect 45 0 46 0;
#X connect 47 0 16 0;
#X connect 51 0 17 0;
#X connect 52 0 32 0;
#X connect 53 0 51 0;
#X connect 54 0 52 0;
#X coords 0 -1 1 1 350 70 1 50 50;
