#N canvas 205 286 704 536 10;
#X obj 25 76 inlet~ source;
#X obj 64 501 outlet~;
#X obj 351 76 receive \$1;
#X obj 107 158 knob 14 14 0 1.5 0 0 \$0-gain \$0-gain.label x0  17
8 1 9 -262144 -260097 -1 0 1;
#X obj 90 375 r \$0-gain;
#X obj 108 120 hsl 50 15 1 12000 0 0 \$0-hz \$0-hz.label  57Hz 2 8
1 11 -261682 -99865 -1 23 1;
#X obj 458 339 formatlabel \$0-hz   Hz;
#X obj 108 138 hsl 50 15 1 999 0 0 \$0-bandwidth \$0-bandwidth.label
bw:199Hz 2 8 1 11 -262144 -99865 -1 977 1;
#X obj 458 361 formatlabel \$0-bandwidth bw: Hz;
#X obj 414 128 symbol \$1;
#X obj 414 104 loadbang;
#X obj 56 203 r \$0-hz;
#X obj 164 195 r \$0-bandwidth;
#X obj 56 321 bandpass;
#X obj 351 154 list append;
#X obj 352 178 list trim;
#X obj 74 291 t b f;
#X text 87 399 [*~] docs claim the arg is needed to use the right inlet
for floats \, so I have done \, even though testing doesn't seem to
indicate this;
#X obj 74 252 expr $f2/(0.015*$f1);
#X text 122 268 convert bw from hz to factor;
#X obj 25 367 biquad~;
#X obj 25 414 *~ 0;
#X msg 352 203 \; \$5.gain \$1 \$4 \; \$5.hz \$2 \$4 \; \$5.bandwidth
\$3 \$4 \;;
#X obj 435 468 rls \$1.hz \$0-hz.label;
#X obj -14 2 cnv 15 700 60 empty \$0-pddp.cnv.header fmt~ <formant_name>
3 12 0 18 -232576 -1 0;
#X text -1 25 bandpass filter with interpolation between parameters.
addressable at <formant_name>;
#X text 433 76 f# [gain] [hz] [bw] [time_ms];
#X text 435 153 will append the formant name to the end;
#X text 456 321 labels on UI;
#X text 123 297 update value before triggering new coefficients;
#X text 432 426 interpolating receiver forwarders;
#X obj 459 382 formatlabel \$0-gain x   1;
#X obj 435 489 rls \$1.bandwidth \$0-bandwidth.label;
#X obj 435 447 rls \$1.gain \$0-gain.label;
#X obj 145 158 tgl 15 0 \$0-enable \$0-enable.label empty 17 7 0 10
-262144 -1 -1 1 1;
#X obj 189 102 loadbang;
#X msg 189 124 1;
#X obj 189 146 s \$0-enable.label;
#X obj 64 455 r \$0-enable;
#X obj 25 476 spigot~;
#X text 139 461 enable or disable toggle (bypass);
#X obj 164 222 t b f;
#X connect 0 0 20 0;
#X connect 2 0 14 0;
#X connect 4 0 21 1;
#X connect 9 0 14 1;
#X connect 10 0 9 0;
#X connect 11 0 18 0;
#X connect 11 0 13 0;
#X connect 12 0 41 0;
#X connect 13 0 20 0;
#X connect 14 0 15 0;
#X connect 15 0 22 0;
#X connect 16 0 13 0;
#X connect 16 1 13 1;
#X connect 18 0 16 0;
#X connect 20 0 21 0;
#X connect 21 0 39 0;
#X connect 35 0 36 0;
#X connect 36 0 37 0;
#X connect 38 0 39 1;
#X connect 39 1 1 0;
#X connect 41 0 18 0;
#X connect 41 1 18 1;
#X coords 0 -1 1 1 64 78 1 100 100;
