#N canvas 1729 528 601 335 10;
#X obj 46 73 inlet~ source;
#X obj 46 193 bp~;
#X obj 46 253 outlet~;
#X floatatom 134 120 5 0 0 0 Hz #0-hz -;
#X floatatom 134 140 5 0 0 0 Q #0-q -;
#X floatatom 134 160 5 0 1 0 Gain #0-gain -;
#X obj 46 223 *~;
#X obj 216 70 receive \$1;
#X text 295 70 f1-4 [gain] [centre freq] [q] [transition_ms];
#X obj 216 183 s \$0-gain;
#X msg 216 140 \$1 \$4;
#X obj 216 161 line;
#X obj 285 161 line;
#X obj 351 161 line;
#X obj 285 183 s \$0-hz;
#X obj 351 183 s \$0-q;
#X msg 351 140 \$3 \$4;
#X msg 285 140 \$2 \$4;
#X connect 0 0 1 0;
#X connect 1 0 6 0;
#X connect 3 0 1 1;
#X connect 4 0 1 2;
#X connect 5 0 6 1;
#X connect 6 0 2 0;
#X connect 7 0 10 0;
#X connect 7 0 17 0;
#X connect 7 0 16 0;
#X connect 10 0 11 0;
#X connect 11 0 9 0;
#X connect 12 0 14 0;
#X connect 13 0 15 0;
#X connect 16 0 13 0;
#X connect 17 0 12 0;
#X coords 0 -1 1 1 70 80 1 100 100;
