#N canvas 0 22 364 232 10;
#X obj 96 28 r \$1;
#X msg 96 141 label \$2\$1\$3;
#X obj 205 47 loadbang;
#X obj 97 115 pack f s s;
#X obj 96 165 s \$1.label;
#X obj 97 55 round \$4;
#X obj 125 87 symbol \$2;
#X obj 203 86 symbol \$3;
#X connect 0 0 5 0;
#X connect 1 0 4 0;
#X connect 2 0 6 0;
#X connect 2 0 7 0;
#X connect 3 0 1 0;
#X connect 5 0 3 0;
#X connect 6 0 3 1;
#X connect 7 0 3 2;
