#N canvas 1508 22 931 793 10;
#X obj 24 61 bng 15 250 50 0 /i:/ empty /i:/ 17 7 1 15 -262144 -1 -1
;
#X obj 64 61 bng 15 250 50 0 /ɑ/ empty /ɑ/ 17 7 1 15 -262144 -1 -1
;
#X obj 105 61 bng 15 250 50 0 /æ/ empty /æ/ 17 7 1 15 -262144 -1
-1;
#X obj 151 61 bng 15 250 50 0 /ɛ/ empty /ɛ/ 17 7 1 15 -262144 -1
-1;
#X obj 24 83 bng 15 250 50 0 /u/ empty /u/ 17 7 1 15 -262144 -1 -1
;
#X obj 20 481 tgl 15 0 \$0-whisper empty whisper 17 7 1 15 -262144
-1 -1 0 1;
#X obj 29 645 select 0;
#X msg 74 664 \; voice_gain 0 \; voice_noise 0.02;
#X msg 29 709 \; voice_gain 1 \; voice_noise 0.02;
#X obj 24 230 bng 15 250 50 0 /S/ empty /S/ 17 7 1 15 -262144 -1 -1
;
#X obj 11 27 cnv 15 198 23 empty empty Monophthong vowels 12 12 1
16 -228856 -1 0;
#X obj 11 197 cnv 15 198 23 empty empty Consonants 12 12 1 16 -228856
-1 0;
#X obj 65 230 bng 15 250 50 0 /p/ empty /p/ 17 7 1 15 -262144 -1 -1
;
#X obj 11 257 cnv 15 198 23 empty empty Words 12 12 1 16 -228856 -1
0;
#X obj 24 288 bng 15 250 50 0 /baʊt/ empty /baʊt/ (bout) 17 7 1
15 -262144 -1 -1;
#X obj 29 626 r \$0-whisper;
#X obj 64 83 bng 15 250 50 0 /I/ empty /I/ 17 7 2 15 -262144 -1 -1
;
#X msg 215 29 \; f0 156 200 \; f1 1 494 50 100 \; f2 1 2000 50 100
\; f3 1 2800 50 100;
#X msg 343 31 \; f0 160 200 \; f1 1 758 50 100 \; f2 1 1265 50 100
\; f3 1 2714 50 100;
#X msg 464 29 \; f0 161 200 \; f1 1 809 50 100 \; f2 1 1533 50 100
\; f3 1 2627 50 100;
#X msg 584 29 \; f0 164 200 \; f1 1 775 50 100 \; f2 1 1896 50 100
\; f3 1 2871 50 100;
#X msg 705 29 \; f0 145 200 \; f1 1 336 50 100 \; f2 1 1639 50 100
\; f3 1 2502 50 100;
#X obj 11 107 cnv 15 198 23 empty empty Dipthongs 12 12 1 16 -228856
-1 0;
#X obj 22 142 bng 15 250 50 0 /aʊ/ empty /aʊ/ 17 7 1 15 -262144 -1
-1;
#X obj 108 231 bng 15 250 50 0 /t/ empty /t/ 17 7 1 15 -262144 -1 -1
;
#X obj 179 542 bng 15 250 50 0 empty empty empty 17 7 0 10 -262144
-1 -1;
#X obj 178 570 metro 1000;
#X obj 24 310 bng 15 250 50 0 /Sip/ empty /Sip/ (sip) 17 7 1 15 -262144
-1 -1;
#X obj 300 684 rqlist /baʊt/ qlists/bout.txt;
#X obj 705 10 rdefault /u/ 1000;
#X obj 214 179 rdefault /I/ 1000;
#X obj 215 10 rdefault /i:/ 1000;
#X obj 343 12 rdefault /ɑ/ 1000;
#X obj 464 10 rdefault /æ/ 1000;
#X obj 584 10 rdefault /ɛ/ 1000;
#X obj 346 179 rdefault /S/ 259;
#X obj 558 179 rdefault /p/ 240;
#X obj 600 414 rdefault /t/ 60 200;
#X obj 347 387 rdefault /aʊ/ 30 193;
#X obj 40 540 msgpipe wait;
#X msg 214 198 \; f0 128 200 \; f1 1 551 50 100 \; f2 1 1812 50 100
\; f3 1 2662 50 100 \; f4 1 3951 50 100 \; f5 0.1 5651 50 100 \;;
#X obj 77 143 bng 15 250 50 0 /ɔɪ/ empty /ɔɪ/ 17 7 1 15 -262144
-1 -1;
#X obj 24 331 bng 15 250 50 0 /nɔɪz/ empty /nɔɪz/ (noise) 17 7
1 15 -262144 -1 -1;
#X obj 298 708 rqlist /nɔɪz/ qlists/noise.txt;
#X obj 300 664 rqlist /Sip/ qlists/sip.txt;
#X msg 348 201 \; source.fric 0 7000 0 \; wait 1 source.fric 5 16000
\$1 \; wait \$1 source.fric 0 20000 20 \; f1 0.1 40 551 0 \; f2 0.1
40 1812 0 \; f3 0.1 40 2662 0 \; f4 0.2 40 4209 0 \; f5 0.4 40 5440
0 \;;
#X msg 347 409 \; source.asp 0.05 1000 0 \; source.voiced.epsilon 4.2
0 \; source.voiced.timing 0.44 0.38 \; source.voiced.alpha 0.2 \$1
\; source.voiced 137 20 \$1 \; f1 1.3 811 180 \$1 \; f2 1.3 1652 180
\$1 \; f3 1.3 2467 180 \$1 \; f4 1 3571 600 \$1 \; f5 0.1 3781 600
\$1 \; wait \$1 source.voiced 127 0 \$2 \; wait \$1 source.voiced.alpha
25 \$2 \; wait \$1 f1 0 464 180 \$2 \; wait \$1 f2 0.6 1022 180 \$2
\; wait \$1 f3 0.1 2336 180 \$2 \; wait \$1 f4 0.3 3466 680 \$2 \;
wait \$1 f5 0.02 4210 600 \$2 \;;
#X msg 565 209 \; source.voiced 17 4 0 0 \; wait 1 source.voiced 160
0 0 200 \; source.fric.gain 0.2 1 \; wait 1 source.fric.gain 0 \$1
\; source.fric.cutoff 4000 \$1 \; f0 160 50 1 \; f1 0.2 809 50 1 \;
f2 0.1 1548 50 1 \; f3 0.02 2744 50 1 \; f4 0.1 4034 50 1 \; f5 0.004
5094 70 1 \;;
#X msg 600 435 \; source.voiced.timing 1 0.49 \; source.asp 0.1 2000
\$1 \; source.voiced.alpha 0 \$1 \; source.voiced 8 0.01 \$1 \; source.fric
0.6 12000 0 \; f1 0.05 1719 300 0 \; f2 0.1 2082 300 0 \; f3 0.2 2779
200 0 \; f4 0.8 3755 300 0 \; f5 1 4703 500 0 \; wait 1 source.fric
0.5 2000 0 \; wait 1 f1 0.4 1471 300 \$1 \; wait 1 f2 0.15 2082 300
\$1 \; wait 1 f3 0.05 2779 200 \$1 \; wait 1 f4 0.85 3755 300 0 \;
wait 1 f5 0.15 4703 500 \$1 \; wait 2 source.fric 0.4 4000 \$1 \; wait
\$1 source.fric 0.08 4000 10 \; wait \$1 source.voiced 60 0 \$2 \;
wait \$1 source.voiced.alpha 0.8 \$2 \; wait \$1 wait 10 source.fric
0 100 \$1 \;;
#X connect 6 0 8 0;
#X connect 6 1 7 0;
#X connect 15 0 6 0;
#X connect 25 0 26 0;
#X connect 29 0 21 0;
#X connect 30 0 40 0;
#X connect 31 0 17 0;
#X connect 32 0 18 0;
#X connect 33 0 19 0;
#X connect 34 0 20 0;
#X connect 35 0 45 0;
#X connect 36 0 47 0;
#X connect 37 0 48 0;
#X connect 38 0 46 0;
#X coords 0 -1 1 1 200 500 1 10 10;
