#N canvas 93 224 1463 607 10;
#X obj 109 121 hsl 60 15 0 1 0 0 \$0-E_e \$0-E_e.slider E_e=0 2 8 1
11 -262144 -1 -1 0 1;
#X obj 109 140 hsl 60 15 -50 50 0 0 \$0-alpha \$0-alpha.slider α=0
2 8 1 11 -262144 -1 -1 2950 1;
#X obj 179 121 hsl 60 15 0 1 0 0 \$0-T_e \$0-T_e.label T_e=1  2 8
1 11 -262144 -1 -1 5900 1;
#X obj 179 140 hsl 60 15 0 1 0 0 \$0-T_p \$0-T_p.label T_p=0.49  2
8 1 11 -262144 -1 -1 2891 1;
#X obj 179 159 hsl 60 15 0 1 0 0 \$0-T_a \$0-T_a.label T_a=0  2 8
1 11 -228856 -162280 -1 0 1;
#X obj 109 159 hsl 60 15 -50 50 0 0 \$0-eps \$0-eps.slider ε=7.6 2
8 1 11 -262144 -1 -1 3400 1;
#X obj -186 124 v eps;
#X obj -252 86 v T_a;
#X obj -198 86 v T_p;
#X obj -306 124 v T_e;
#X obj -252 124 v alpha;
#X obj -306 86 v E_e;
#X obj -62 59 r \$0-k;
#X obj -254 243 expr exp((alpha*$i1)/N);
#X obj -62 108 moses;
#X obj -35 84 expr T_e*N;
#X obj -21 247 expr $f1-$f2;
#X obj -21 275 expr -(E_e/(eps*T_a))*$f1;
#X obj -21 217 expr exp(-eps*($i1/N - T_e));
#X obj 48 187 expr exp(-eps*(1-T_e));
#X obj -309 297 expr -1*$f1*$f2*$f3;
#X obj -225 442 v pi;
#X obj -225 421 pi;
#X obj -243 388 bng 15 250 50 0 empty empty empty 17 7 0 10 -262144
-1 -1;
#X obj -198 220 expr sin(pi/T_p * $i1/N);
#X obj -309 267 expr E_e/(exp(alpha*T_e)*sin((pi/T_p) * T_e));
#X obj -284 441 v N;
#X obj 176 502 until;
#X obj 221 525 + 1;
#X msg 146 502 0;
#X obj 176 525 i;
#X obj 176 456 v N;
#X msg 176 479 \$1;
#X obj 176 411 bng 15 250 50 0 empty empty empty 17 7 0 10 -262144
-1 -1;
#X obj 176 548 s \$0-k;
#X obj -284 420 i \$2;
#X msg -243 513 \; \$1 resize \$2 \;;
#X obj -88 351 tabwrite \$1;
#X obj -243 473 any \$1;
#X obj -243 493 pack s \$2;
#X obj 176 378 change;
#X obj 176 356 v E_e;
#X obj 218 378 change;
#X obj 218 356 v alpha;
#X obj 266 378 change;
#X obj 266 356 v T_e;
#X obj 308 378 change;
#X obj 308 356 v T_p;
#X obj 350 378 change;
#X obj 350 356 v T_a;
#X obj 392 378 change;
#X obj 392 356 v eps;
#X text 162 248 originally this just happened every DSP cycle but this
wastes a lot of processor power so now updates are filtered to only
when parameters have changed;
#X text 265 494 will emit 0 to N integers in a sequence \, almost instantly
;
#X text -144 516 set size of array provided to size provided;
#X text -188 442 expr has no pi constant so make one;
#X obj -243 364 loadbang;
#X obj -306 67 r \$0-E_e;
#X obj -252 67 r \$0-T_a;
#X obj -198 67 r \$0-T_p;
#X obj -306 105 r \$0-T_e;
#X obj -252 105 r \$0-alpha;
#X obj -186 105 r \$0-eps;
#X text -305 47 update vars from UI;
#X obj 111 31 bang~;
#X obj 111 54 expr 1-T_e-T_p;
#X obj 624 105 v R_d;
#X obj 639 272 v R_a;
#X obj 652 220 v R_k;
#X obj 665 169 v R_g;
#X floatatom 624 59 5 0.3 2.7 0 - - -;
#X floatatom 675 273 5 0 0 0 - - -;
#X floatatom 688 221 5 0 0 0 - - -;
#X obj 627 36 hsl 80 15 0 5 0 0 empty empty R_d 2 8 1 10 -262144 -1
-1 0 1;
#X floatatom 701 169 5 0 0 0 - - -;
#X floatatom 624 320 5 0 0 0 - - -;
#X obj 624 301 expr (1/R_k)*4*(R_d/(0.5+1.2*R_k)-R_a);
#X obj 639 249 expr if(R_d<=2.7 \, -1+4.8*R_d \, -2.6*(R_d-2.7)+11.96)
;
#X obj 652 197 expr 22.4+11.8*R_d;
#X obj 665 146 expr 5/R_d;
#X obj 645 560 s \$0-E_e.slider;
#X msg 645 540 label E_e=\$1;
#X obj 645 520 round 2;
#X obj 645 500 r \$0-E_e;
#X text 637 476 compact slider labels;
#X obj 744 499 r \$0-alpha;
#X msg 744 539 label α=\$1;
#X obj 744 559 s \$0-alpha.slider;
#X obj 744 519 round 1;
#X obj 853 519 round 1;
#X msg 853 539 label ε=\$1;
#X obj 853 499 r \$0-eps;
#X obj 853 559 s \$0-eps.slider;
#X obj 584 540 inlet E_e;
#X obj 732 439 inlet alpha;
#X obj 825 473 inlet eps;
#X obj 176 430 onebang 1;
#X obj 176 328 t b b;
#X obj 176 304 bang~;
#X text 258 431 cap to ONE update once per DSP cycle;
#X obj 624 81 t b f;
#X text 114 9 keep the 'grey' slider updated from T_e and T_p;
#X text 628 3 can't get much useful out of this at the moment \, from
fant LF revisited paper;
#X obj 41 80 print K=;
#X obj 463 101 print T_e;
#X obj 427 141 print T_e;
#X obj 414 178 inlet T_e;
#X obj 304 109 inlet T_p;
#X obj 597 362 formatlabel \$0-T_e T_e=   2;
#X obj 597 381 formatlabel \$0-T_p T_p=   2;
#X obj 111 75 s \$0-T_a.label;
#X obj 597 400 formatlabel \$0-T_a T_a=   2;
#X connect 12 0 15 0;
#X connect 12 0 14 0;
#X connect 13 0 20 1;
#X connect 14 0 13 0;
#X connect 14 0 24 0;
#X connect 14 0 25 0;
#X connect 14 0 37 1;
#X connect 14 1 18 0;
#X connect 14 1 19 0;
#X connect 14 1 37 1;
#X connect 15 0 14 1;
#X connect 16 0 17 0;
#X connect 17 0 37 0;
#X connect 18 0 16 0;
#X connect 19 0 16 1;
#X connect 20 0 37 0;
#X connect 22 0 21 0;
#X connect 23 0 22 0;
#X connect 23 0 35 0;
#X connect 23 0 38 0;
#X connect 24 0 20 2;
#X connect 25 0 20 0;
#X connect 27 0 30 0;
#X connect 28 0 30 1;
#X connect 29 0 30 1;
#X connect 30 0 28 0;
#X connect 30 0 34 0;
#X connect 31 0 32 0;
#X connect 32 0 27 0;
#X connect 32 0 29 0;
#X connect 33 0 96 0;
#X connect 35 0 26 0;
#X connect 38 0 39 0;
#X connect 39 0 36 0;
#X connect 40 0 33 0;
#X connect 41 0 40 0;
#X connect 42 0 33 0;
#X connect 43 0 42 0;
#X connect 44 0 33 0;
#X connect 45 0 44 0;
#X connect 46 0 33 0;
#X connect 47 0 46 0;
#X connect 48 0 33 0;
#X connect 49 0 48 0;
#X connect 50 0 33 0;
#X connect 51 0 50 0;
#X connect 56 0 23 0;
#X connect 57 0 11 0;
#X connect 58 0 7 0;
#X connect 59 0 8 0;
#X connect 60 0 9 0;
#X connect 61 0 10 0;
#X connect 62 0 6 0;
#X connect 64 0 65 0;
#X connect 65 0 110 0;
#X connect 66 0 76 0;
#X connect 66 0 77 0;
#X connect 66 0 78 0;
#X connect 66 0 79 0;
#X connect 70 0 100 0;
#X connect 73 0 70 0;
#X connect 76 0 75 0;
#X connect 77 0 67 0;
#X connect 77 0 71 0;
#X connect 78 0 68 0;
#X connect 78 0 72 0;
#X connect 79 0 74 0;
#X connect 79 0 69 0;
#X connect 81 0 80 0;
#X connect 82 0 81 0;
#X connect 83 0 82 0;
#X connect 85 0 88 0;
#X connect 86 0 87 0;
#X connect 88 0 86 0;
#X connect 89 0 90 0;
#X connect 90 0 92 0;
#X connect 91 0 89 0;
#X connect 93 0 80 0;
#X connect 94 0 87 0;
#X connect 95 0 92 0;
#X connect 96 0 31 0;
#X connect 97 0 51 0;
#X connect 97 0 49 0;
#X connect 97 0 47 0;
#X connect 97 0 45 0;
#X connect 97 0 43 0;
#X connect 97 0 41 0;
#X connect 97 1 96 1;
#X connect 98 0 97 0;
#X connect 100 0 66 0;
#X connect 100 1 66 0;
#X connect 106 0 2 0;
#X connect 107 0 3 0;
#X coords 0 -1 1 1 146 80 1 100 100;
