#N canvas 0 22 1022 761 10;
#X obj 133 370 inlet~;
#X obj 216 542 dac~;
#N canvas 750 335 482 356 dsp 0;
#X obj 11 7 inlet;
#X obj 92 226 select 0 1;
#X msg 125 248 6;
#X obj 92 57 route dsp;
#X obj 92 36 receive pd;
#X obj 206 138 loadbang;
#X msg 11 220 dsp \$1;
#X obj 11 245 send pd;
#X msg 206 278 set \$1;
#X obj 206 174 value GLOBAL_PDDP_DSP;
#X msg 109 278 color \$1 20 12;
#X obj 180 309 send \$0-dsp-toggle;
#X obj 92 115 change;
#X msg 92 247 0;
#X connect 0 0 6 0;
#X connect 0 0 12 0;
#X connect 1 0 13 0;
#X connect 1 1 2 0;
#X connect 2 0 10 0;
#X connect 3 0 12 0;
#X connect 4 0 3 0;
#X connect 5 0 9 0;
#X connect 6 0 7 0;
#X connect 8 0 11 0;
#X connect 9 0 8 0;
#X connect 9 0 1 0;
#X connect 10 0 11 0;
#X connect 12 0 8 0;
#X connect 12 0 1 0;
#X connect 12 0 9 0;
#X connect 13 0 10 0;
#X restore 540 199 pd dsp logic;
#X obj 214 423 line~;
#X obj 59 337 send pd;
#X msg 59 316 dsp 1;
#X obj 214 402 pack 0 50;
#X text 281 401 <-- make a ramp to avoid clicks or zipper noise;
#X msg 214 367 0;
#X obj 214 344 moses 0.011;
#X obj 180 459 *~;
#X obj 236 509 hip~ 3;
#X text 246 487 dc filter;
#X obj 236 464 freeverb~;
#X obj 537 296 loadbang;
#X obj 540 322 bng 15 250 50 0 empty empty empty 17 7 0 10 -262144
-1 -1;
#X msg 543 355 dry 1;
#X obj 111 214 moses 1;
#X msg 101 256 wet 0;
#X msg 155 252 wet 0.1;
#X obj 607 427 tgl 15 0 empty empty recording 20 8 1 14 -262144 -1
-1 0 1;
#X msg 349 640 stop;
#X obj 409 683 writesf~ 1;
#X obj 599 449 moses 1;
#X obj 228 681 print Stopped recording;
#X obj 595 653 print Started recording;
#X msg 604 360 roomsize 0.1;
#X msg 699 364 damping 2;
#X obj 469 568 savepanel;
#X obj 469 546 bng 15 250 50 0 empty \$0-save.location empty 17 7 0
10 -262144 -1 -1;
#X msg 542 509 label ●;
#X msg 634 486 label ■;
#X obj 604 403 receive \$0-record-toggle;
#X obj 651 567 s \$0-record-button;
#X msg 690 481 color 0 0 12;
#X msg 601 508 color 0 0 13;
#X obj 469 621 s \$0-filename;
#X obj 101 120 cnv 15 398 45 empty \$0-recording-bg RECORDING 6 12
0 14 -262144 -262144 0;
#X obj 432 166 hsl 42 18 0.01 1 1 0 \$0-v \$0-v.label volume 7 9 1
9 -260097 -13381 -1 4100 0;
#X obj 476 166 tgl 18 0 THIS_IS_HERE_TO_GET_RID_OF_THE_OUTLET \$0-dsp-toggle
dsp 2 9 1 9 -225271 -195568 -33289 1 1;
#X obj 107 169 tgl 15 0 empty empty Reverb 20 7 1 10 -262144 -1 -1
0 1;
#X obj 107 143 bng 20 250 50 0 \$0-record-toggle \$0-record-button
● 2 7 0 30 -262144 -262144 -258699;
#X obj 548 596 s \$0-recording-bg;
#X msg 548 570 color 43 0;
#X obj 810 543 s \$0-recording-bg;
#X msg 810 517 color 30 0;
#X obj 442 598 any;
#X msg 492 652 open \$1 \, start;
#X obj 62 64 loadbang;
#X msg 62 113 0;
#X obj 540 43 loadbang;
#X msg 539 71 1;
#X obj 542 98 s \$0-v.label;
#X obj 135 145 bng 15 50 10 0 \$0-save.location \$0-filename ⏏️   ./records/new.wav
4 7 1 9 -262144 -1 -1;
#X msg 470 595 label ⏏️   \$1;
#X obj 439 577 bng 15 250 50 0 empty empty empty 17 7 0 10 -262144
-1 -1;
#X connect 0 0 10 0;
#X connect 3 0 10 1;
#X connect 5 0 4 0;
#X connect 6 0 3 0;
#X connect 8 0 6 0;
#X connect 9 0 8 0;
#X connect 9 1 6 0;
#X connect 10 0 13 0;
#X connect 11 0 1 0;
#X connect 11 0 1 1;
#X connect 11 0 22 0;
#X connect 13 0 11 0;
#X connect 14 0 15 0;
#X connect 15 0 16 0;
#X connect 15 0 26 0;
#X connect 15 0 27 0;
#X connect 16 0 13 0;
#X connect 17 0 18 0;
#X connect 17 1 19 0;
#X connect 18 0 13 0;
#X connect 19 0 13 0;
#X connect 20 0 23 0;
#X connect 21 0 22 0;
#X connect 23 0 21 0;
#X connect 23 0 24 0;
#X connect 23 0 30 0;
#X connect 23 0 35 0;
#X connect 23 0 45 0;
#X connect 23 1 25 0;
#X connect 23 1 31 0;
#X connect 23 1 34 0;
#X connect 23 1 43 0;
#X connect 23 1 55 0;
#X connect 26 0 13 0;
#X connect 27 0 13 0;
#X connect 28 0 54 0;
#X connect 28 0 46 1;
#X connect 29 0 28 0;
#X connect 30 0 33 0;
#X connect 31 0 33 0;
#X connect 32 0 20 0;
#X connect 34 0 33 0;
#X connect 35 0 33 0;
#X connect 38 0 9 0;
#X connect 38 0 5 0;
#X connect 39 0 2 0;
#X connect 40 0 17 0;
#X connect 43 0 42 0;
#X connect 45 0 44 0;
#X connect 46 0 47 0;
#X connect 47 0 22 0;
#X connect 48 0 49 0;
#X connect 49 0 40 0;
#X connect 50 0 51 0;
#X connect 51 0 52 0;
#X connect 54 0 36 0;
#X connect 55 0 46 0;
#X coords 0 -1 1 1 400 90 1 100 100;
