#N canvas 584 330 648 320 10;
#X obj 214 102 inlet f0;
#X obj 84 268 outlet f0;
#X obj 84 121 timer;
#X obj 111 43 loadbang;
#X obj 111 70 metro \$1;
#X text 193 73 argument \$1 is resolution in ms (smaller = higher res)
;
#X obj 214 134 f;
#X text 250 135 feed new f0 back into input of eqn but not in its interrupting
port (avoid infinite loop);
#X obj 345 186 inlet flutter;
#X obj 84 218 expr ($f3/50)*($f2/100)*(sin(2*pi*12.7*$f1)) +sin(2*pi*7.1*$f1)+sin(2*pi*4.7*$f1)+$f2
;
#X connect 0 0 6 0;
#X connect 2 0 9 0;
#X connect 3 0 4 0;
#X connect 4 0 2 1;
#X connect 4 0 6 0;
#X connect 6 0 9 1;
#X connect 8 0 9 2;
#X connect 9 0 1 0;
