#N canvas 584 330 648 320 10;
#X obj 177 87 inlet f0;
#X obj 47 253 outlet f0;
#X obj 47 106 timer;
#X obj 74 28 loadbang;
#X obj 74 55 metro \$1;
#X text 156 58 argument \$1 is resolution in ms (smaller = higher res)
;
#X obj 308 171 inlet flutter;
#X obj 47 203 expr ($f3/50)*($f2/100)*(sin(2*pi*12.7*$f1)) +sin(2*pi*7.1*$f1)+sin(2*pi*4.7*$f1)+$f2
;
#X text 330 228 note this currently relies on global 'pi' variable
defined in lfmodel~. if this patch is to be used in isolation this
would need to be redefined locally.;
#X connect 0 0 7 1;
#X connect 2 0 7 0;
#X connect 3 0 4 0;
#X connect 4 0 2 1;
#X connect 6 0 7 2;
#X connect 7 0 1 0;
