#N canvas 2332 488 247 206 10;
#X obj 16 90 list append;
#X obj 79 39 loadbang;
#X obj 16 174 outlet;
#X obj 16 150 list trim;
#X obj 16 115 list split 1;
#X obj 79 64 f \$2;
#X obj 16 14 receive \$1;
#X connect 0 0 4 0;
#X connect 1 0 5 0;
#X connect 3 0 2 0;
#X connect 4 0 3 0;
#X connect 4 2 3 0;
#X connect 5 0 0 1;
#X connect 6 0 0 0;
