#N canvas 1615 -309 865 564 10;
#X obj 183 413 outlet;
#X obj 165 100 receive \$1;
#X obj 184 200 dollarg;
#X obj 218 274 list split;
#X text 247 94 receives a list of args;
#X obj 275 170 list length;
#X obj 183 338 list append;
#X obj 183 377 list trim;
#X obj 184 233 list split 1;
#X text 59 232 extract destination;
#X obj 165 134 t l b l;
#X obj 275 306 bng 15 250 50 0 empty empty empty 17 7 0 10 -262144
-1 -1;
#X text 300 306 need this bang to clear second list when message changes
;
#X text 361 38 variable length argument override message sender;
#X text 365 169 number of elements provided in message;
#X text 292 273 discard elements we already have;
#X obj 131 44 inlet;
#X connect 1 0 10 0;
#X connect 2 0 8 0;
#X connect 3 1 6 1;
#X connect 3 2 11 0;
#X connect 5 0 3 1;
#X connect 6 0 7 0;
#X connect 7 0 0 0;
#X connect 8 1 3 0;
#X connect 10 0 6 0;
#X connect 10 1 2 0;
#X connect 10 2 5 0;
#X connect 11 0 6 1;
#X connect 16 0 10 0;
