#N canvas 890 331 450 300 10;
#X obj 117 87 inlet;
#X obj 77 87 r \$1;
#X obj 116 128 symbol \$2;
#X msg 138 199 read \$1;
#X obj 116 164 t b s;
#X obj 128 226 qlist;
#X connect 0 0 2 0;
#X connect 1 0 2 0;
#X connect 2 0 4 0;
#X connect 3 0 5 0;
#X connect 4 0 5 0;
#X connect 4 1 3 0;
