#N canvas 976 152 450 300 10;
#X obj 107 71 bang~;
#X obj 166 71 inlet~;
#X obj 143 219 outlet;
#X obj 291 226 outlet~;
#X obj 161 141 snapshot~;
#X obj 161 164 change;
#X connect 0 0 4 0;
#X connect 1 0 3 0;
#X connect 1 0 4 0;
#X connect 4 0 5 0;
#X connect 5 0 2 0;
