#N canvas 184 67 1199 728 10;
#X obj 49 616 outlet~;
#N canvas 0 22 668 488 (subpatch) 0;
#X array \$0-glottis 515 float 4;
#X coords 0 1 514 -1 70 50 2 0 0;
#X restore 105 195 graph;
#X obj 49 340 *~;
#X obj 49 393 lop~;
#X obj 172 545 tabosc4~ \$0-glottis;
#X obj 249 107 lfmodel~ \$0-glottis 515;
#X obj 187 212 hsl 90 15 0 1 0 0 \$0-aspiration \$0-aspiration.slider
Aspiration 8 8 1 11 -262144 -1 -1 200 1;
#X obj 187 230 hsl 90 15 0 5 0 0 \$0-frication \$0-frication.slider
Frication 8 8 1 11 -262144 -1 -1 0 1;
#X obj 49 294 r \$0-aspiration;
#X obj 123 56 s \$0-f0.label;
#X obj 172 525 r \$0-f0;
#X obj 70 367 r \$0-aspiration.cutoff;
#X obj 809 460 r source.fric;
#X obj 107 404 r \$0-frication;
#X obj 107 451 *~;
#X obj 812 385 r source.asp;
#X obj 812 284 r source.voiced;
#X msg 812 405 \; source.asp.gain \$1 \$3 \; source.asp.cutoff \$2
\$3 \;;
#X msg 809 480 \; source.fric.gain \$1 \$3 \; source.fric.cutoff \$2
\$3 \;;
#X obj 108 473 lop~;
#X obj 174 442 r \$0-frication.cutoff;
#X obj 285 230 hsl 50 15 0 20000 0 0 \$0-frication.cutoff \$0-frication.cutoff.label
 97Hz 0 8 1 11 -262144 -1 -1 24 1;
#X obj 285 212 hsl 50 15 0 20000 0 0 \$0-aspiration.cutoff \$0-aspiration.cutoff.label
 2000Hz 0 8 1 11 -262144 -1 -1 490 1;
#X obj 108 150 hsl 70 15 6 600 1 0 \$0-f0 \$0-f0.label F0=58Hz 8 8
1 11 -204800 -1 -1 3400 1;
#X obj 842 48 formatlabel \$0-frication.cutoff   Hz;
#X obj 842 67 formatlabel \$0-aspiration.cutoff   Hz;
#X obj 842 86 formatlabel \$0-f0 F0= Hz 1;
#X obj 122 428 pink~;
#X obj 64 317 pink~;
#X text 576 21 process signals with lines into UI;
#X text 847 22 update lables when params change;
#X text 814 261 route namespaced receivers;
#X text 360 300 SIGNALS:                source.voiced
[f0] [gain] [flutter] [Rd] [time_ms] \; source.asp [gain] [cutoff]
[time_ms] \; source.fric [gain] [time_ms] source.gain [[gain] time_ms]
;
#X obj 568 49 rls source.voiced.gain \$0-voice.slider;
#X obj 568 107 rls source.fric.gain \$0-frication.slider;
#X obj 568 68 rls source.asp.cutoff \$0-aspiration.cutoff.label;
#X obj 568 126 rls source.fric.cutoff \$0-frication.cutoff.label;
#X obj 568 145 rls source.asp.gain \$0-aspiration.label;
#X obj 234 -12 rls source.voiced.flutter;
#X obj 172 565 *~ 1;
#X obj 132 30 quasirandomdrift 50;
#X obj 49 593 expr~ $v2+$v3*($v1+1);
#X text 919 282 source.voiced f0 E_e onset_ms f0 E_e target_ms;
#X msg 812 304 \; f0 \$1 \$3 \$4 \$6 \; source.voiced.E_e \$2 \$3 \$5
\$6 \;;
#X obj 269 65 rvls source.voiced.alpha;
#X obj 251 42 rvls source.voiced.E_e;
#X obj 123 5 rvls f0;
#X obj 364 79 r source.voiced.timing;
#X obj 444 107 unpack f f;
#X obj 237 13 nbx 5 14 0 100 0 0 empty empty empty 0 -8 0 10 -262144
-1 -1 0.25 256;
#X obj 302 54 rls source.voiced.epsilon;
#X connect 2 0 3 0;
#X connect 3 0 41 0;
#X connect 4 0 39 0;
#X connect 8 0 2 0;
#X connect 10 0 4 0;
#X connect 11 0 3 1;
#X connect 12 0 18 0;
#X connect 13 0 14 0;
#X connect 14 0 19 0;
#X connect 15 0 17 0;
#X connect 16 0 43 0;
#X connect 19 0 41 1;
#X connect 20 0 19 1;
#X connect 27 0 14 1;
#X connect 28 0 2 1;
#X connect 38 0 49 0;
#X connect 39 0 41 2;
#X connect 40 0 9 0;
#X connect 41 0 0 0;
#X connect 44 0 5 3;
#X connect 45 0 5 2;
#X connect 46 0 40 0;
#X connect 47 0 48 0;
#X connect 48 0 5 1;
#X connect 48 1 5 0;
#X connect 49 0 40 1;
#X connect 50 0 5 4;
#X coords 0 -1 1 1 300 150 1 100 100;
