#N canvas 638 162 816 610 10;
#X obj 382 25 voice_source~;
#X obj -9 24 interface;
#X obj 382 275 formant2~ f1;
#X obj 225 25 unvoiced_source~;
#X obj 464 275 formant2~ f2;
#X obj 546 276 formant2~ f3;
#X obj 628 276 formant2~ f4;
#X obj 710 277 formant2~ f5;
#X obj 383 509 master~;
#X obj 383 409 analyser~;
#X connect 0 0 2 0;
#X connect 0 0 4 0;
#X connect 0 0 5 0;
#X connect 0 0 6 0;
#X connect 0 0 7 0;
#X connect 2 0 9 0;
#X connect 3 0 9 0;
#X connect 4 0 9 0;
#X connect 5 0 9 0;
#X connect 6 0 9 0;
#X connect 7 0 9 0;
#X connect 9 0 8 0;
