#N canvas 237 231 694 562 10;
#X obj 319 371 analyser~;
#X obj 388 21 source~;
#X obj 22 20 controller;
#X obj 319 467 desk~;
#X obj 249 217 fmt~ f1;
#X obj 534 219 fmt~ f5;
#X obj 389 218 fmt~ f3;
#X obj 319 216 fmt~ f2;
#X obj 462 218 fmt~ f4;
#X obj 604 219 fmt~ f6;
#X connect 0 0 3 0;
#X connect 1 0 4 0;
#X connect 1 0 5 0;
#X connect 1 0 6 0;
#X connect 1 0 7 0;
#X connect 1 0 8 0;
#X connect 1 0 9 0;
#X connect 4 0 0 0;
#X connect 5 0 0 0;
#X connect 6 0 0 0;
#X connect 7 0 0 0;
#X connect 8 0 0 0;
#X connect 9 0 0 0;
