#N canvas 1684 318 976 616 10;
#X obj 2 10 interface;
#X obj 206 509 master~;
#X obj 206 409 analyser~;
#X obj 345 29 source~;
#X obj 206 245 fmt~ f1;
#X obj 276 244 fmt~ f2;
#X obj 346 246 fmt~ f3;
#X obj 419 246 fmt~ f4;
#X obj 491 247 fmt~ f5;
#X obj 561 247 fmt~ f6;
#X connect 2 0 1 0;
#X connect 3 0 4 0;
#X connect 3 0 5 0;
#X connect 3 0 6 0;
#X connect 3 0 7 0;
#X connect 3 0 8 0;
#X connect 3 0 9 0;
#X connect 4 0 2 0;
#X connect 5 0 2 0;
#X connect 6 0 2 0;
#X connect 7 0 2 0;
#X connect 8 0 2 0;
#X connect 9 0 2 0;
