#N canvas 1441 22 847 636 10;
#X obj 382 25 voice_source~;
#X obj 382 593 dac~;
#X obj 383 426 plot~;
#X obj -9 24 interface;
#X obj 382 275 formant2~ f1;
#X obj 225 25 unvoiced_source~;
#X msg 307 560 stop;
#X msg 206 509 open recording.wav \, start;
#X obj 307 592 writesf~ 1;
#X obj 464 275 formant2~ f2;
#X obj 546 276 formant2~ f3;
#X obj 628 276 formant2~ f4;
#X obj 710 277 formant2~ f5;
#X connect 0 0 4 0;
#X connect 0 0 9 0;
#X connect 0 0 10 0;
#X connect 0 0 11 0;
#X connect 0 0 12 0;
#X connect 2 0 1 0;
#X connect 2 0 1 1;
#X connect 2 0 8 0;
#X connect 4 0 2 0;
#X connect 5 0 2 0;
#X connect 6 0 8 0;
#X connect 7 0 8 0;
#X connect 9 0 2 0;
#X connect 10 0 2 0;
#X connect 11 0 2 0;
#X connect 12 0 2 0;
