#N canvas 2000 540 550 487 10;
#X obj 17 347 outlet~;
#X floatatom 108 155 6 0 0 0 - - -;
#X obj 111 134 hsl 128 15 3 30000 1 0 empty empty Freq -2 -8 0 10 -262144
-1 -1 4835 1;
#X obj 17 320 *~;
#X obj 17 -76 receive unvoiced;
#X obj 260 252 bp~;
#X floatatom 209 156 5 0 0 0 Q - -;
#X obj 17 86 vline~;
#X obj 108 229 hsl 128 15 0 1 0 0 empty empty gain -2 -8 0 10 -260097
-1 -1 0 1;
#X obj 108 15 line;
#X text 131 -75 unvoiced [gain] [centre_freq] [q] [transition_ms];
#X msg 17 63 0 \, \$1 \$4 0 \, 0 0 \$4;
#X msg 108 -7 \$2 \$4;
#X obj 17 162 snapchange~;
#X obj 266 -40 receive plosive;
#X msg 209 -7 \$3;
#X obj 260 148 noise~;
#X msg 226 33 100;
#X msg 279 -17 0.8 \, 0 45 1;
#X msg 266 19 3;
#X connect 1 0 5 1;
#X connect 2 0 1 0;
#X connect 3 0 0 0;
#X connect 4 0 11 0;
#X connect 4 0 12 0;
#X connect 4 0 15 0;
#X connect 5 0 3 1;
#X connect 6 0 5 2;
#X connect 7 0 13 0;
#X connect 8 0 3 0;
#X connect 9 0 2 0;
#X connect 11 0 7 0;
#X connect 12 0 9 0;
#X connect 13 0 8 0;
#X connect 14 0 18 0;
#X connect 14 0 19 0;
#X connect 14 0 17 0;
#X connect 15 0 6 0;
#X connect 16 0 5 0;
#X connect 17 0 2 0;
#X connect 18 0 7 0;
#X connect 19 0 6 0;
#X coords 0 -1 1 1 150 150 1 100 100;
