#N canvas 1459 533 538 493 10;
#X obj 179 400 outlet~;
#X obj 273 193 soundfiler;
#N canvas 0 22 668 488 (subpatch) 0;
#X array \$0-data 515 float 4;
#X coords 0 1 514 -1 70 50 2 0 0;
#X restore 105 195 graph;
#X floatatom 273 216 5 0 0 0 - - -;
#X obj 258 270 phasor~;
#X text 326 215 samples in the sound-file;
#X obj 273 248 expr $i1-2;
#X obj 258 293 *~;
#X msg 273 171 read -resize LF_deriv.wav \$1-data;
#X obj 273 130 bng 15 250 50 0 empty empty empty 17 7 0 10 -262144
-1 -1;
#X obj 273 149 i \$0;
#X obj 258 321 tabread4~ \$0-data;
#X obj 273 107 loadbang;
#X floatatom 120 121 5 0 0 0 Hz - -;
#X obj 179 182 vsl 17 60 0 5 0 0 empty voice_noise asp 0 -9 0 10 -262144
-1 -1 0 1;
#X obj 179 290 *~;
#X obj 179 375 +~;
#X obj 120 52 receive f0;
#X obj 120 77 line;
#X obj 222 154 vsl 23 90 0 1 0 1 empty voice_gain gain 0 -9 0 10 -260097
-1 -1 0 1;
#X obj 194 351 *~;
#X obj 179 -44 receive plosive;
#X obj 179 29 vline~;
#X msg 222 7 0 \$2;
#X obj 222 49 line;
#X obj 20 -44 receive voice_source_gain;
#X obj 308 -10 receive asp_cutoff;
#X obj 308 44 vline~;
#X floatatom 176 141 5 0 0 0 asp_cutoff - -;
#X obj 179 313 lop~;
#X obj 194 262 pink~;
#X obj 179 76 snapchange~;
#X obj 308 76 snapchange~;
#X obj 169 113 hsl 60 15 200 20000 1 0 empty empty empty -2 -8 0 10
-262144 -1 -1 3838 1;
#X obj 14 16 receive voice_source_asp;
#X obj 21 52 line;
#X text 281 -44 plosive [noise] [time_ms];
#X msg 179 -14 \$1 \, 0 \$2;
#X msg 308 15 20000 \, \$1 \$2 0;
#X connect 1 0 3 0;
#X connect 3 0 6 0;
#X connect 4 0 7 0;
#X connect 6 0 7 1;
#X connect 7 0 11 0;
#X connect 8 0 1 0;
#X connect 9 0 10 0;
#X connect 10 0 8 0;
#X connect 11 0 20 1;
#X connect 12 0 9 0;
#X connect 13 0 4 0;
#X connect 14 0 15 0;
#X connect 15 0 29 0;
#X connect 16 0 0 0;
#X connect 17 0 18 0;
#X connect 18 0 13 0;
#X connect 19 0 20 0;
#X connect 20 0 16 1;
#X connect 21 0 37 0;
#X connect 21 0 23 0;
#X connect 22 0 31 0;
#X connect 23 0 24 0;
#X connect 24 0 19 0;
#X connect 25 0 24 0;
#X connect 26 0 38 0;
#X connect 27 0 32 0;
#X connect 28 0 29 1;
#X connect 29 0 16 0;
#X connect 30 0 15 1;
#X connect 31 0 14 0;
#X connect 32 0 33 0;
#X connect 33 0 28 0;
#X connect 34 0 35 0;
#X connect 35 0 14 0;
#X connect 37 0 22 0;
#X connect 38 0 27 0;
#X coords 0 -1 1 1 150 150 1 100 100;
